<?xml version="1.0" encoding="utf-8"?>
<!-- Generator: Adobe Illustrator 28.0.0, SVG Export Plug-In . SVG Version: 6.00 Build 0)  -->
<svg version="1.1" id="Layer_1" xmlns="http://www.w3.org/2000/svg" xmlns:xlink="http://www.w3.org/1999/xlink" x="0px" y="0px"
	 viewBox="0 0 100 100" style="enable-background:new 0 0 100 100;" xml:space="preserve">
<style type="text/css">
	.st0{stroke:#000000;stroke-width:5;stroke-miterlimit:10;}
	.st1{stroke:#000000;stroke-width:4;stroke-miterlimit:10;}
</style>
<path class="st0" d="M49.9,97.2c-26,0-47-21-47-46.9s21-46.9,47-46.9s47,21,47,46.9C96.9,76.1,75.8,97.2,49.9,97.2z M49.9,5.4
	C25.1,5.4,4.9,25.6,4.9,50.3s20.2,44.8,44.9,44.8S94.8,75,94.8,50.3S74.6,5.4,49.9,5.4z"/>
<rect x="20.9" y="14.9" class="st0" width="1.7" height="71.1"/>
<rect x="77" y="14.9" class="st0" width="2" height="71.1"/>
<path class="st1" d="M47.5,61.5l-8.4,1.3c0-10.1-3.7-19-9.1-27.1c2.3-0.6,8.9,2.6,10.7,5.2l-2.2-0.6c0,0.3,0.1,0.5,0.2,0.8
	c1.5,3.2,2.5,6.6,3.1,10.1c0.4,2,0.6,4,0.9,6c0.1,0.5,0.2,0.7,0.7,0.6c1.1-0.2,2.3-0.3,3.4-0.5c0.4-0.1,0.7-0.2,0.7-0.7
	c0-5.3,0-10.6,0-15.9c0-0.2,0-0.3-0.1-0.5l-3.9,0.5c3.2-3.3,4.7-7.4,6.4-11.4c1.7,4,3.1,8,6.4,11.4l-4-0.6c0,0.4,0,0.7,0,1
	c0,5,0,10.1,0,15.1c0,0.7,0.2,1,0.9,1c1,0.1,2.1,0.3,3.1,0.5c0.6,0.1,0.8,0,0.8-0.7c0.5-4.9,1.6-9.7,3.2-14.4
	c0.2-0.7,0.6-1.4,0.9-2.1c0-0.1,0-0.2,0-0.4l-2.1,0.5c0.9-2.1,7.4-5.4,10.5-5.3c-0.1,0.3-0.3,0.7-0.5,1c-3.1,4.7-5.5,9.9-7.1,15.3
	c-0.9,3.2-1.5,6.6-1.6,10c0,0.2,0,0.5-0.1,0.9l-8.3-1.1v1c0,3.3,0,11.1,0,11.1h-4.9c0,0,0-7.6,0-10.9V61.5z"/>
</svg>
