<?xml version="1.0" encoding="utf-8"?>
<!-- Generator: Adobe Illustrator 28.0.0, SVG Export Plug-In . SVG Version: 6.00 Build 0)  -->
<svg version="1.1" id="Layer_1" xmlns="http://www.w3.org/2000/svg" xmlns:xlink="http://www.w3.org/1999/xlink" x="0px" y="0px"
	 viewBox="0 0 100 100" style="enable-background:new 0 0 100 100;" xml:space="preserve">
<path d="M0.3,67.2v6.2c0.3,2.9,1,5.8,1.9,8.6C5.4,92,11.5,99,17.1,100h65.8c5.6-1,11.7-8,14.9-17.9c0.9-2.8,1.5-5.7,1.9-8.6v-6.2
	H0.3z M80.8,20.6H19.1l0,17h61.8L80.8,20.6z M76.1,0H60v15.7h16.1L76.1,0z M85.6,45.9L85.6,45.9c0-1.9-1.4-3.4-3-3.4H17.3
	c-1.7,0-3,1.5-3,3.4v16.4l71.3,0L85.6,45.9z M27.2,56.5c-1.5,0-2.8-1-3.4-2.5c-0.6-1.5-0.3-3.3,0.8-4.4c1-1.2,2.6-1.5,4-0.9
	c1.4,0.6,2.3,2.1,2.3,3.8C30.9,54.7,29.2,56.5,27.2,56.5L27.2,56.5z M42.4,56.5c-1.5,0-2.8-1-3.4-2.5c-0.6-1.5-0.3-3.3,0.8-4.4
	c1-1.2,2.6-1.5,4-0.9c1.4,0.6,2.2,2.1,2.2,3.8c0,1.1-0.4,2.1-1.1,2.9C44.3,56.1,43.3,56.5,42.4,56.5L42.4,56.5z M57.5,56.5
	c-1.5,0-2.8-1-3.4-2.5c-0.6-1.5-0.2-3.3,0.8-4.4c1-1.2,2.6-1.5,4-0.9c1.4,0.6,2.2,2.1,2.2,3.8c0,1.1-0.4,2.1-1.1,2.9
	C59.4,56.1,58.5,56.5,57.5,56.5L57.5,56.5z M72.7,56.5c-1.5,0-2.8-1-3.4-2.5c-0.6-1.5-0.3-3.3,0.8-4.4c1-1.2,2.6-1.5,4-0.9
	c1.4,0.6,2.3,2.1,2.3,3.8c0,1.1-0.4,2.1-1.1,2.9C74.6,56.1,73.7,56.5,72.7,56.5L72.7,56.5z"/>
</svg>
