<?xml version="1.0" encoding="utf-8"?>
<!-- Generator: Adobe Illustrator 28.0.0, SVG Export Plug-In . SVG Version: 6.00 Build 0)  -->
<svg version="1.1" id="Layer_1" xmlns="http://www.w3.org/2000/svg" xmlns:xlink="http://www.w3.org/1999/xlink" x="0px" y="0px"
	 viewBox="0 0 98 98" style="enable-background:new 0 0 98 98;" xml:space="preserve">
<g id="Layer_1_00000126324149704519279300000001127865739735146397_">
	<path d="M95.3,47.3l-5.7-1.6c-0.4-0.1-0.7-0.6-0.6-1l2.8-9.9c0.4-1.5-1-2.9-2.4-2.4l-9.8,2.8c-0.5,0.1-0.9-0.2-1-0.6l-1.4-5.7
		c-0.4-1.7-2.6-2.1-3.6-0.7l-8.6,12.4c-0.9,1.3-2.9,0.4-2.5-1.1l5.2-24.6c0.3-1.7-1.4-3-2.9-2.1l-5.9,3.3c-0.4,0.2-0.9,0.1-1.1-0.3
		L51.2,4.1c-0.9-1.6-3.1-1.6-4,0l-6.6,11.7c-0.2,0.4-0.7,0.5-1.1,0.3l-5.8-3.3c-1.5-0.8-3.3,0.5-2.9,2.1l5.2,24.6
		c0.3,1.5-1.7,2.4-2.5,1.1L25,28.2c-1-1.4-3.2-1-3.6,0.7l-1.2,5.7c-0.1,0.5-0.6,0.7-1,0.6l-9.8-2.8c-1.5-0.4-2.9,1-2.4,2.4l2.8,9.9
		c0.1,0.4-0.1,0.9-0.6,1l-5.7,1.6c-1.9,0.5-2.2,2.6-0.8,3.5l22.2,14.8c0.9,0.6,1,1.8,0.3,2.5l-2.9,3.3c-1.1,1.2-0.1,3.2,1.5,3
		l22-2.6v19.3c0,1.9,1.6,3.5,3.5,3.5s3.5-1.6,3.5-3.5V71.8l22,2.6c1.7,0.2,2.7-1.8,1.5-3l-2.9-3.2c-0.7-0.8-0.6-2,0.3-2.5l22.2-14.9
		C97.2,49.9,96.9,47.8,95.3,47.3z"/>
</g>
</svg>
