<?xml version="1.0" encoding="utf-8"?>
<!-- Generator: Adobe Illustrator 28.0.0, SVG Export Plug-In . SVG Version: 6.00 Build 0)  -->
<svg version="1.1" id="Layer_1" xmlns="http://www.w3.org/2000/svg" xmlns:xlink="http://www.w3.org/1999/xlink" x="0px" y="0px"
	 viewBox="0 0 100 100" style="enable-background:new 0 0 100 100;" xml:space="preserve">
<g>
	<path d="M71.8,67.6c-1.6-6-9.9-10.5-20.2-10.5s-19,4.6-20.2,10.5H71.8z"/>
	<path d="M71.8,94.2l-8.2-14c0-0.4-0.4-0.4-0.4-0.7c4.5-1.8,8.2-4.9,9.1-8.4H31.4c0.8,3.5,4.1,6.7,9.1,8.4c0,0.4-0.4,0.4-0.4,0.7
		l-8.2,14c-0.8,1.8,0,3.9,1.6,4.6c0.4,0.4,1.2,0.4,1.6,0.4c1.6,0,2.9-0.7,3.7-2.1l8.2-14c0.4-0.7,0.4-1.4,0.4-1.8l0,0c0,0,0,0,0,0.4
		v14c0,2.1,1.6,3.5,4.1,3.5c2.5,0,4.1-1.4,4.1-3.5v-14c0,0,0,0,0-0.4l0,0c0,0.7,0,1.4,0.4,1.8l8.2,14c0.8,1.4,2.1,2.1,3.7,2.1
		c0.4,0,1.2,0,1.6-0.4C71.8,98.1,72.6,96,71.8,94.2z"/>
	<path d="M55.7,4.5c0-2.1-1.6-3.5-4.1-3.5c-2.5,0-4.1,1.4-4.1,3.5V15h8.2V4.5z"/>
	<path d="M67.7,29H55.7h-8.2H35.5c0.8,2.5,3.7,4.6,7.4,5.6l-2.9,20.7c3.3-1.1,7.4-1.8,11.5-1.8c4.1,0,8.2,0.7,11.5,1.8l-2.9-20.7
		C64,33.6,66.8,31.5,67.7,29z M55.7,50.1h-8.2v-3.5h8.2V50.1z M55.7,43.1h-8.2v-3.5h8.2V43.1z"/>
	<path d="M67.7,25.5c-1.6-4.2-8.2-7-16.1-7s-14.8,2.8-16.1,7H67.7z"/>
</g>
</svg>
