<?xml version="1.0" encoding="utf-8"?>
<!-- Generator: Adobe Illustrator 28.0.0, SVG Export Plug-In . SVG Version: 6.00 Build 0)  -->
<svg version="1.1" id="Layer_1" xmlns="http://www.w3.org/2000/svg" xmlns:xlink="http://www.w3.org/1999/xlink" x="0px" y="0px"
	 viewBox="0 0 100 100" style="enable-background:new 0 0 100 100;" xml:space="preserve">
<path d="M21.9,84.3c0.9,0,1.7-0.7,1.7-1.7v-4.1c0-0.9-0.7-1.7-1.7-1.7s-1.7,0.7-1.7,1.7v4.1C20.3,83.6,21,84.3,21.9,84.3z"/>
<path d="M35.8,84.3c0.9,0,1.7-0.7,1.7-1.7v-4.1c0-0.9-0.7-1.7-1.7-1.7c-0.9,0-1.7,0.7-1.7,1.7v4.1C34.1,83.6,34.8,84.3,35.8,84.3z"
	/>
<path d="M49.6,76.9c-0.9,0-1.7,0.7-1.7,1.7v4.1c0,0.9,0.7,1.7,1.7,1.7c0.9,0,1.7-0.7,1.7-1.7v-4.1C51.2,77.6,50.5,76.9,49.6,76.9z"
	/>
<path d="M63.3,84.3c0.9,0,1.7-0.7,1.7-1.7v-4.1c0-0.9-0.7-1.7-1.7-1.7s-1.7,0.7-1.7,1.7v4.1C61.6,83.6,62.4,84.3,63.3,84.3z"/>
<path d="M77,76.9c-0.9,0-1.7,0.7-1.7,1.7v4.1c0,0.9,0.7,1.7,1.7,1.7s1.7-0.7,1.7-1.7v-4.1C78.6,77.6,77.9,76.9,77,76.9z"/>
<path d="M97.5,86.5h-11V74.6c4.7-0.3,9.1-2.8,11.8-6.7l1.1-1.6c0.5-0.7,0.6-1.7,0.1-2.5c-0.5-0.8-1.3-1.2-2.2-1.1l-3.5,0.3
	c-5,0.5-10-1.5-13.4-5.2c-0.4-0.5-1.1-0.8-1.7-0.8h-6.1v-5.6h9c5.1,0,10-2.5,12.9-6.7l1.1-1.6c0.5-0.7,0.6-1.7,0.1-2.5
	c-0.5-0.8-1.3-1.2-2.2-1.1l-3.5,0.3c-5,0.5-10-1.5-13.4-5.2c-0.4-0.5-1.1-0.8-1.7-0.8h-2.3v-5.6h0.3c5.1,0,10-2.5,12.9-6.7l1.1-1.6
	c0.5-0.7,0.6-1.7,0.1-2.5c-0.5-0.8-1.3-1.2-2.2-1.1l-3.5,0.3c-5,0.5-10-1.5-13.4-5.2c-0.4-0.5-1.1-0.8-1.7-0.8h-3.2l-4-2
	c-3-1.5-5.6-3.9-7.4-6.8c-0.4-0.7-1.2-1.1-2-1.1c-0.8,0-1.5,0.4-2,1.1c-1.8,2.9-4.3,5.2-7.4,6.8l-4,2h-3.2c-0.7,0-1.3,0.3-1.7,0.8
	C28,15.3,23,17.2,18,16.8l-3.5-0.3c-0.9-0.1-1.8,0.4-2.2,1.1s-0.4,1.8,0.1,2.5l1.1,1.6c2.9,4.2,7.8,6.7,12.9,6.7h0.3V34h-2.3
	c-0.7,0-1.3,0.3-1.7,0.8c-3.4,3.7-8.4,5.6-13.4,5.2l-3.5-0.3c-0.9-0.1-1.8,0.4-2.2,1.1s-0.4,1.8,0.1,2.5l1.1,1.6
	c2.9,4.2,7.8,6.7,12.9,6.7h9v5.6h-6.1c-0.7,0-1.3,0.3-1.7,0.8c-3.4,3.7-8.4,5.6-13.4,5.2l-3.5-0.3c-0.9-0.1-1.8,0.4-2.2,1.1
	c-0.5,0.8-0.4,1.8,0.1,2.5L0.9,68c2.7,3.9,7.1,6.4,11.8,6.7v11.8h-11c-1.3,0-2.3,1-2.3,2.3v8.8c0,1.3,1,2.3,2.3,2.3h47.9h47.9
	c1.3,0,2.3-1,2.3-2.3v-8.8C99.8,87.5,98.8,86.5,97.5,86.5z M28.8,91.1h2.5v4.1H20.1v-4.1H28.8z M18.5,67c5.6,0.5,11.2-1.5,15.3-5.3
	h15.8h15.8c4.1,3.8,9.7,5.7,15.3,5.3c-1.3,1.4-2.9,2.4-4.7,3h-5.7H56.5h-6.9h-6.9H28.8h-5.7C21.4,69.4,19.8,68.4,18.5,67z M23,43.9
	c5.6,0.5,11.2-1.5,15.3-5.3h11.3h12c4.1,3.8,9.7,5.7,15.3,5.3c-1.3,1.4-2.9,2.4-4.7,3H49.6H27.7C25.9,46.3,24.3,45.3,23,43.9z
	 M49.6,15.5h5c4.1,3.8,9.7,5.7,15.3,5.3c-1.3,1.4-2.9,2.4-4.7,3H49.6H34c-1.8-0.6-3.4-1.6-4.7-3c5.6,0.5,11.2-1.5,15.3-5.3
	L49.6,15.5L49.6,15.5z M49.6,28.4h4.6V34h-4.6H45v-5.6H49.6z M49.6,51.5h4.6v5.6h-4.6H45v-5.6H49.6z M68,86.5h-9.2V74.7H68V86.5z
	 M49.6,86.5H45V74.7h4.6h4.6v11.8H49.6z M31.2,74.7h9.2v11.8h-9.2V74.7z M36,91.1h6.7h4.6v4.1H36V91.1z M51.9,91.1h4.6h6.7v4.1H51.9
	V91.1z M67.8,91.1h2.5H79v4.1H67.8L67.8,91.1L67.8,91.1z M72.6,86.5V74.7h9.2v11.8H72.6z M92.1,67.8c-1.9,1.5-4.3,2.3-6.7,2.3h-1.2
	h-1.8c0.8-0.7,1.5-1.6,2.2-2.5l0.7-1C87.4,67.3,89.8,67.8,92.1,67.8z M80,63.8c-3.1,0.2-6.2-0.5-8.9-2h6.6
	C78.4,62.5,79.2,63.2,80,63.8z M67.9,57.1h-9.1v-5.6h9.1V57.1z M88.3,44.6c-1.9,1.5-4.3,2.3-6.7,2.3h-3c0.8-0.7,1.5-1.6,2.2-2.5
	l0.7-1C83.6,44.2,85.9,44.6,88.3,44.6z M76.2,40.6c-3.1,0.2-6.2-0.5-8.9-2h6.6C74.6,39.3,75.3,40,76.2,40.6z M67.9,34h-9.1v-5.6h9.1
	V34z M79.6,21.5c-1.9,1.5-4.3,2.3-6.7,2.3h-1.3c0.8-0.7,1.5-1.6,2.2-2.5l0.4-0.6C75.9,21.2,77.7,21.5,79.6,21.5z M67.5,17.5
	c-2.5-0.1-5-0.8-7.2-2h2.1c0,0,0,0,0,0c0,0,0,0,0,0h2.7C65.8,16.2,66.6,16.9,67.5,17.5z M49.6,7.2c1.2,1.4,2.5,2.6,3.9,3.7h-3.9
	h-3.9C47.1,9.8,48.4,8.6,49.6,7.2z M34.1,15.5h4.8c-2.2,1.2-4.7,1.9-7.2,2C32.5,16.9,33.3,16.2,34.1,15.5z M19.6,21.5
	c1.8,0,3.7-0.3,5.4-0.8l0.4,0.6c0.6,0.9,1.4,1.7,2.2,2.5h-1.3C23.9,23.8,21.5,22.9,19.6,21.5z M31.3,28.4h9.1V34h-9.1V28.4z
	 M25.3,38.6h7.3c-2.9,1.6-6.2,2.3-9.5,2l0,0C23.9,40,24.6,39.3,25.3,38.6z M10.9,44.6c2.5,0,5.1-0.5,7.4-1.4l0.9,1.2
	c0.6,0.9,1.4,1.7,2.2,2.5h-3.7C15.2,46.9,12.8,46.1,10.9,44.6z M31.3,51.5h9.1v5.6h-9.1V51.5z M21.5,61.8h6.6
	c-2.7,1.5-5.8,2.2-8.9,2C20,63.2,20.8,62.5,21.5,61.8z M13.9,66.5l0.7,1c0.6,0.9,1.4,1.7,2.2,2.5H15h-1.2c-2.5,0-4.8-0.8-6.7-2.3
	C9.4,67.8,11.7,67.3,13.9,66.5z M17.3,74.7h9.2v11.8h-9.2V74.7z M4,91.1h11h0.5v4.1H4V91.1z M95.2,95.2H83.7v-4.1h0.5h11V95.2z"/>
</svg>
